# generated from PmQm by Jehee Lee
:FULLY-SPECIFIED
:DEGREES
194
root 18.5623 37.159 4.95139 -141.378 83.9462 -135.128
RightUpLeg -22.0237 -0.776298 5.14194
RightLeg 27.6888 5.19382 -2.51114
RightFoot -0.760124 -0.4087 3.78957
RightToes 4.07452e-010 -1.59028e-015 9.93923e-017
Spine 16.9298 -1.74296 4.1238
Spine1 19.3893 -0.61295 -2.19763
HEad -31.4188 8.36177 -16.14
LeftShoulder1 9.93923e-017 -0 1.22299e-017
LeftArm -12.899 27.6166 -79.1276
LeftForeArm -3.91527 -13.3409 0.479756
LeftHand 1.12317 8.31411 -5.56051
RightShoulder 1.98785e-016 -4.96962e-017 1.55301e-017
RightArm 3.25526 -24.3517 80.389
RightForeArm -22.9118 18.2523 -13.9698
RightHand 2.27731 -15.6842 -9.80298
LeftUpLeg -9.3839 -7.4673 6.94297
LeftLeg 47.6077 -5.02625 7.6556
LeftFoot -9.83029 0.310565 -11.5782
LeftToes 1.53707e-010 -1.11459e-010 1.58109e-011
195
root 18.7407 36.7489 5.33426 -146.655 81.9003 -139.972
RightUpLeg -23.0953 -2.73739 6.5113
RightLeg 31.337 5.19955 -3.00886
RightFoot -2.72966 -0.262257 2.90257
RightToes 4.07452e-010 -1.59028e-015 9.93923e-017
Spine 19.6918 -1.87663 6.39809
Spine1 19.4193 0.10434 -2.54949
HEad -31.9474 6.54709 -13.992
LeftShoulder1 9.93923e-017 -0 1.22299e-017
LeftArm -4.85076 24.7985 -78.1011
LeftForeArm -10.9244 -16.9609 3.42712
LeftHand 1.17385 8.48902 -1.85874
RightShoulder 1.98785e-016 -4.96962e-017 1.55301e-017
RightArm -4.53568 -22.3423 81.1246
RightForeArm -11.102 15.9325 -6.41778
RightHand 2.15219 -15.3403 -9.05118
LeftUpLeg -14.7828 -7.26174 8.96502
LeftLeg 55.8776 -6.96453 7.93463
LeftFoot -3.76625 0.628289 -7.59953
LeftToes 1.53707e-010 -1.11459e-010 1.58109e-011
196
root 18.9448 36.4328 5.68604 -149.251 80.6948 -142.499
RightUpLeg -24.2134 -4.40435 7.45411
RightLeg 34.2621 5.60203 -3.14642
RightFoot -4.40219 -0.164924 2.17778
RightToes 4.07452e-010 -1.59028e-015 9.93923e-017
Spine 21.9683 -1.83024 8.16368
Spine1 19.077 1.06403 -3.48869
HEad -31.7792 5.4969 -12.8633
LeftShoulder1 9.93923e-017 -0 1.22299e-017
LeftArm 3.62386 22.5845 -77.3659
LeftForeArm -24.053 -20.9108 8.56237
LeftHand 1.18217 8.48341 -0.983986
RightShoulder 1.98785e-016 -4.96962e-017 1.55301e-017
RightArm -12.9677 -20.2958 81.8547
RightForeArm -0.0212309 12.1088 -0.792808
RightHand 2.04315 -15.2837 -7.83132
LeftUpLeg -19.6843 -5.95766 10.0653
LeftLeg 61.7537 -8.26958 7.92913
LeftFoot -1.03464 0.38651 -3.48709
LeftToes 1.53707e-010 -1.11459e-010 1.58109e-011
197
root 19.1619 36.2717 6.03579 -154.038 80.3096 -147.369
RightUpLeg -24.9703 -5.85556 7.55989
RightLeg 36.2042 6.07914 -3.05271
RightFoot -5.71227 -0.0930988 1.45053
RightToes 4.07452e-010 -1.59028e-015 9.93923e-017
Spine 24.2848 -1.44836 8.35906
Spine1 18.4538 1.95541 -4.42659
HEad -31.2642 5.36832 -12.7194
LeftShoulder1 9.93923e-017 -0 1.22299e-017
LeftArm 8.53991 20.6111 -77.0777
LeftForeArm -34.7552 -23.393 13.5064
LeftHand 1.15406 8.30167 -1.35058
RightShoulder 1.98785e-016 -4.96962e-017 1.55301e-017
RightArm -18.4593 -18.2156 82.5286
RightForeArm 5.71375 8.78423 1.97033
RightHand 2.03056 -15.5622 -7.11715
LeftUpLeg -23.5992 -3.59866 9.75172
LeftLeg 64.5353 -9.2564 6.90495
LeftFoot -1.4662 0.268014 -2.62176
LeftToes 1.53707e-010 -1.11459e-010 1.58109e-011
198
root 19.3524 36.1973 6.37988 -160.804 79.7482 -154.361
RightUpLeg -25.5436 -6.92116 7.22515
RightLeg 37.4611 5.99579 -3.2982
RightFoot -6.66259 -0.0461956 0.830835
RightToes 4.07452e-010 -1.59028e-015 9.93923e-017
Spine 26.6655 -1.05447 7.63715
Spine1 17.9042 2.45782 -4.92666
HEad -30.5787 5.89317 -13.1155
LeftShoulder1 9.93923e-017 -0 1.22299e-017
LeftArm 8.16788 18.366 -77.1281
LeftForeArm -38.9549 -24.4397 15.7151
LeftHand 1.1174 8.04801 -1.8178
RightShoulder 1.98785e-016 -4.96962e-017 1.55301e-017
RightArm -20.6007 -16.0096 83.0849
RightForeArm 5.93602 7.316 2.91068
RightHand 2.16773 -16.0816 -7.73137
LeftUpLeg -27.0514 -1.0263 8.41093
LeftLeg 64.5854 -10.2201 4.55316
LeftFoot -2.67149 0.407105 -4.41643
LeftToes 1.53707e-010 -1.11459e-010 1.58109e-011
199
root 19.5154 36.1254 6.69651 -166.126 78.5101 -160.246
RightUpLeg -26.4059 -7.40374 7.02449
RightLeg 38.4924 5.24705 -4.10038
RightFoot -7.40581 -0.0284421 0.580943
RightToes 4.07452e-010 -1.59028e-015 9.93923e-017
Spine 28.7107 -0.926618 7.00322
Spine1 17.6115 2.57966 -5.20125
HEad -29.6572 6.85094 -13.8157
LeftShoulder1 9.93923e-017 -0 1.22299e-017
LeftArm 6.14675 15.8211 -77.4046
LeftForeArm -40.3719 -24.6621 16.0143
LeftHand 1.08723 7.78228 -1.11685
RightShoulder 1.98785e-016 -4.96962e-017 1.55301e-017
RightArm -20.859 -13.5796 83.5544
RightForeArm 3.34368 7.36777 2.95535
RightHand 2.38214 -16.6233 -9.07133
LeftUpLeg -30.4792 1.10277 6.58301
LeftLeg 62.427 -11.0145 2.13698
LeftFoot -3.4483 0.505942 -5.90625
LeftToes 1.53707e-010 -1.11459e-010 1.58109e-011
200
root 19.6489 36.045 6.9848 -169.751 76.912 -164.734
RightUpLeg -27.6429 -7.6918 6.89048
RightLeg 39.5024 4.31229 -5.11706
RightFoot -8.08517 -0.0309061 0.712598
RightToes 4.07452e-010 -1.59028e-015 9.93923e-017
Spine 30.485 -1.02453 6.3674
Spine1 17.481 2.47256 -5.56556
HEad -28.5411 8.04029 -14.7179
LeftShoulder1 9.93923e-017 -0 1.22299e-017
LeftArm 5.14177 13.2737 -77.8472
LeftForeArm -40.653 -24.4372 15.5759
LeftHand 1.05222 7.46679 1.1357
RightShoulder 1.98785e-016 -4.96962e-017 1.55301e-017
RightArm -19.7838 -10.9181 83.9899
RightForeArm 0.24829 8.31906 2.40026
RightHand 2.52752 -16.9568 -9.96053
LeftUpLeg -33.6538 2.57478 4.39733
LeftLeg 58.3996 -11.3652 0.827605
LeftFoot -4.01378 0.48912 -6.09048
LeftToes 1.53707e-010 -1.11459e-010 1.58109e-011
201
root 19.7226 35.9195 7.24952 -172.851 75.313 -168.705
RightUpLeg -29.1535 -8.29773 6.62793
RightLeg 40.798 3.67747 -5.98863
RightFoot -8.80264 -0.034532 0.92357
RightToes 4.07452e-010 -1.59028e-015 9.93923e-017
Spine 32.5171 -1.24486 5.53943
Spine1 17.3051 2.28773 -6.12662
HEad -27.6154 8.99987 -15.5039
LeftShoulder1 9.93923e-017 -0 1.22299e-017
LeftArm 5.42896 10.8757 -78.3435
LeftForeArm -39.4431 -23.9871 14.7323
LeftHand 1.01397 7.19409 3.45952
RightShoulder 1.98785e-016 -4.96962e-017 1.55301e-017
RightArm -16.1319 -8.19085 84.4082
RightForeArm -3.32345 10.2765 1.04446
RightHand 2.54016 -16.9367 -10.1276
LeftUpLeg -36.2379 3.39883 2.04315
LeftLeg 53.3654 -11.4929 0.160105
LeftFoot -3.94804 0.528126 -6.49756
LeftToes 1.53707e-010 -1.11459e-010 1.58109e-011
202
root 19.7446 35.658 7.47486 -174.791 74.0651 -171.263
RightUpLeg -30.9285 -9.02166 6.49158
RightLeg 42.8653 3.5184 -6.66028
RightFoot -9.69889 -0.0281559 0.945317
RightToes 4.07452e-010 -1.59028e-015 9.93923e-017
Spine 34.9557 -1.51559 4.94874
Spine1 17.0941 2.23917 -6.97901
HEad -27.3333 9.31002 -15.8737
LeftShoulder1 9.93923e-017 -0 1.22299e-017
LeftArm 5.57346 8.49215 -78.6964
LeftForeArm -36.6158 -23.2869 13.3274
LeftHand 0.991794 7.07139 4.18227
RightShoulder 1.98785e-016 -4.96962e-017 1.55301e-017
RightArm -8.31156 -5.48009 84.7933
RightForeArm -9.03178 13.3329 -1.79925
RightHand 2.47507 -16.6454 -10.0187
LeftUpLeg -38.2213 3.67942 0.0870096
LeftLeg 49.0815 -11.8259 -0.562385
LeftFoot -2.83218 0.631463 -6.92966
LeftToes 1.53707e-010 -1.11459e-010 1.58109e-011
203
root 19.7619 35.2186 7.63711 -175.161 73.4734 -171.953
RightUpLeg -32.9683 -9.42848 6.70963
RightLeg 45.8833 3.78891 -7.19541
RightFoot -10.8935 -0.0150626 0.767957
RightToes 4.07452e-010 -1.59028e-015 9.93923e-017
Spine 37.3861 -1.71971 4.67424
Spine1 17.1941 2.46154 -8.08562
HEad -27.7963 9.077 -15.9511
LeftShoulder1 9.93923e-017 -0 1.22299e-017
LeftArm 4.03352 5.96463 -78.8317
LeftForeArm -31.9839 -22.1757 11.0962
LeftHand 0.966256 6.92338 3.5948
RightShoulder 1.98785e-016 -4.96962e-017 1.55301e-017
RightArm 2.83925 -2.52706 85.0581
RightForeArm -17.2218 16.3915 -6.33072
RightHand 2.42983 -16.4575 -9.90968
LeftUpLeg -39.8692 3.42996 -1.03111
LeftLeg 47.3275 -12.1539 -1.03993
LeftFoot -2.10002 0.4881 -4.97099
LeftToes 1.53707e-010 -1.11459e-010 1.58109e-011
204
root 19.7956 34.6071 7.73144 -174.783 73.3563 -171.776
RightUpLeg -35.3943 -9.62837 7.11055
RightLeg 49.7883 4.32486 -7.7106
RightFoot -12.4578 -0.003495040001 0.567295
RightToes 4.07452e-010 -1.59028e-015 9.93923e-017
Spine 39.4207 -1.81076 4.23715
Spine1 17.7261 2.76553 -9.13255
HEad -28.79 8.71293 -15.975
LeftShoulder1 9.93923e-017 -0 1.22299e-017
LeftArm 0.649148 3.35832 -78.7763
LeftForeArm -25.676 -20.4981 8.15557
LeftHand 0.926148 6.68791 3.3267
RightShoulder 1.98785e-016 -4.96962e-017 1.55301e-017
RightArm 13.7469 0.971373 85.0767
RightForeArm -25.1186 18.2066 -11.1104
RightHand 2.43483 -16.5398 -9.79853
LeftUpLeg -41.6563 2.48839 -1.43052
LeftLeg 48.6259 -11.8028 -0.53951
LeftFoot -3.3619 0.0402466 -0.476754
LeftToes 1.53707e-010 -1.11459e-010 1.58109e-011
205
root 19.8265 33.8199 7.78169 -174.514 73.1879 -171.888
RightUpLeg -38.5145 -9.90657 7.44059
RightLeg 54.5102 4.95919 -8.39042
RightFoot -14.3702 0.005849200003 0.549705
RightToes 4.07452e-010 -1.59028e-015 9.93923e-017
Spine 41.0642 -1.89943 3.44936
Spine1 18.145 2.81945 -9.94732
HEad -30.1456 8.34733 -15.7907
LeftShoulder1 9.93923e-017 -0 1.22299e-017
LeftArm -3.70818 0.925658 -78.4882
LeftForeArm -18.6032 -18.2285 5.11675
LeftHand 0.903737 6.57133 3.84791
RightShoulder 1.98785e-016 -4.96962e-017 1.55301e-017
RightArm 22.1342 4.79832 84.8434
RightForeArm -30.5611 19.0061 -14.9335
RightHand 2.43576 -16.5896 -9.70972
LeftUpLeg -44.2811 0.854628 -1.53059
LeftLeg 52.1618 -10.7723 1.12622
LeftFoot -5.69031 -0.251287 3.40879
LeftToes 1.53707e-010 -1.11459e-010 1.58109e-011
206
root 19.8205 32.8726 7.81954 -174.054 72.7439 -172.14
RightUpLeg -42.3891 -10.1242 7.76549
RightLeg 59.7365 5.66157 -9.24205
RightFoot -16.4449 0.0239424 0.830111
RightToes 4.07452e-010 -1.59028e-015 9.93923e-017
Spine 42.6455 -2.07693 2.68072
Spine1 17.8574 2.60213 -10.6305
HEad -31.8535 7.74102 -15.1283
LeftShoulder1 9.93923e-017 -0 1.22299e-017
LeftArm -8.26279 -1.07486 -78.0221
LeftForeArm -12.1548 -15.5497 2.64717
LeftHand 0.912452 6.63422 4.37634
RightShoulder 1.98785e-016 -4.96962e-017 1.55301e-017
RightArm 27.5083 8.28803 84.318
RightForeArm -33.5202 19.48 -18.1196
RightHand 2.39879 -16.4265 -9.63413
LeftUpLeg -48.2208 -0.913933 -1.48975
LeftLeg 56.9071 -10.0385 2.97894
LeftFoot -6.98896 -0.270703 4.42347
LeftToes 1.53707e-010 -1.11459e-010 1.58109e-011
207
root 19.7726 31.7948 7.85116 -172.985 72.2594 -171.861
RightUpLeg -46.5998 -10.0389 8.21183
RightLeg 65.1824 6.51962 -10.0525
RightFoot -18.6316 0.0661403 1.37955
RightToes 4.07452e-010 -1.59028e-015 9.93923e-017
Spine 44.4451 -2.23111 2.18709
Spine1 17.01 2.39652 -11.2459
HEad -33.8858 6.67493 -14.0842
LeftShoulder1 9.93923e-017 -0 1.22299e-017
LeftArm -12.3324 -2.60543 -77.6332
LeftForeArm -7.71317 -12.7795 1.03802
LeftHand 0.926788 6.72514 4.91842
RightShoulder 1.98785e-016 -4.96962e-017 1.55301e-017
RightArm 28.6544 11.1027 83.3134
RightForeArm -33.5843 20.1949 -20.6293
RightHand 2.36576 -16.3029 -9.52041
LeftUpLeg -52.9787 -2.04418 -1.36007
LeftLeg 62.2322 -10.1193 4.05817
LeftFoot -7.40281 -0.231037 3.98062
LeftToes 1.53707e-010 -1.11459e-010 1.58109e-011
